<svg width="16" height="16" viewBox="0 0 16 16" fill="none" xmlns="http://www.w3.org/2000/svg">
<path fill-rule="evenodd" clip-rule="evenodd" d="M7.17157 1.83823C7.92172 1.08808 8.93913 0.666656 10 0.666656H12C12.3682 0.666656 12.6667 0.965133 12.6667 1.33332V3.99999C12.6667 4.36818 12.3682 4.66666 12 4.66666H10V5.99999H12C12.2053 5.99999 12.3991 6.09457 12.5255 6.25638C12.6518 6.41819 12.6966 6.62919 12.6468 6.82835L11.9801 9.49501C11.9059 9.79179 11.6392 9.99999 11.3333 9.99999H10V14.6667C10 15.0348 9.70152 15.3333 9.33333 15.3333H6.66667C6.29848 15.3333 6 15.0348 6 14.6667V9.99999H4.66667C4.29848 9.99999 4 9.70151 4 9.33332V6.66666C4 6.29847 4.29848 5.99999 4.66667 5.99999H6V4.66666C6 3.60579 6.42143 2.58837 7.17157 1.83823ZM10 1.99999C9.29276 1.99999 8.61448 2.28094 8.11438 2.78104C7.61428 3.28114 7.33333 3.95941 7.33333 4.66666V6.66666C7.33333 7.03485 7.03486 7.33332 6.66667 7.33332H5.33333V8.66666H6.66667C7.03486 8.66666 7.33333 8.96513 7.33333 9.33332V14H8.66667V9.33332C8.66667 8.96513 8.96514 8.66666 9.33333 8.66666H10.8128L11.1461 7.33332H9.33333C8.96514 7.33332 8.66667 7.03485 8.66667 6.66666V4.66666C8.66667 4.31303 8.80714 3.9739 9.05719 3.72385C9.30724 3.4738 9.64638 3.33332 10 3.33332H11.3333V1.99999H10Z" fill="#E9EAEC"/>
</svg>
