<svg width="16" height="16" viewBox="0 0 16 16" fill="none" xmlns="http://www.w3.org/2000/svg">
<path fill-rule="evenodd" clip-rule="evenodd" d="M2.6665 1.99999C2.29831 1.99999 1.99984 2.29847 1.99984 2.66666C1.99984 3.03485 2.29831 3.33332 2.6665 3.33332C3.03469 3.33332 3.33317 3.03485 3.33317 2.66666C3.33317 2.29847 3.03469 1.99999 2.6665 1.99999ZM0.666504 2.66666C0.666504 1.56209 1.56193 0.666656 2.6665 0.666656C3.77107 0.666656 4.6665 1.56209 4.6665 2.66666C4.6665 3.77123 3.77107 4.66666 2.6665 4.66666C1.56193 4.66666 0.666504 3.77123 0.666504 2.66666ZM10.6665 5.99999C9.78245 5.99999 8.9346 6.35118 8.30948 6.9763C7.68436 7.60142 7.33317 8.44927 7.33317 9.33332V13.3333H8.6665V9.33332C8.6665 8.80289 8.87722 8.29418 9.25229 7.91911C9.62736 7.54404 10.1361 7.33332 10.6665 7.33332C11.1969 7.33332 11.7056 7.54404 12.0807 7.91911C12.4558 8.29418 12.6665 8.80289 12.6665 9.33332V13.3333H13.9998V9.33332C13.9998 8.44927 13.6486 7.60142 13.0235 6.9763C12.3984 6.35118 11.5506 5.99999 10.6665 5.99999ZM7.36667 6.03349C8.24184 5.15832 9.42883 4.66666 10.6665 4.66666C11.9042 4.66666 13.0912 5.15832 13.9663 6.03349C14.8415 6.90866 15.3332 8.09565 15.3332 9.33332V14C15.3332 14.3682 15.0347 14.6667 14.6665 14.6667H11.9998C11.6316 14.6667 11.3332 14.3682 11.3332 14V9.33332C11.3332 9.15651 11.2629 8.98694 11.1379 8.86192C11.0129 8.73689 10.8433 8.66666 10.6665 8.66666C10.4897 8.66666 10.3201 8.73689 10.1951 8.86192C10.0701 8.98694 9.99984 9.15651 9.99984 9.33332V14C9.99984 14.3682 9.70136 14.6667 9.33317 14.6667H6.6665C6.29831 14.6667 5.99984 14.3682 5.99984 14V9.33332C5.99984 8.09565 6.4915 6.90866 7.36667 6.03349ZM0.666504 5.99999C0.666504 5.6318 0.964981 5.33332 1.33317 5.33332H3.99984C4.36803 5.33332 4.6665 5.6318 4.6665 5.99999V14C4.6665 14.3682 4.36803 14.6667 3.99984 14.6667H1.33317C0.964981 14.6667 0.666504 14.3682 0.666504 14V5.99999ZM1.99984 6.66666V13.3333H3.33317V6.66666H1.99984Z" fill="#E9EAEC"/>
</svg>
