<svg width="16" height="16" viewBox="0 0 16 16" fill="none" xmlns="http://www.w3.org/2000/svg">
<path fill-rule="evenodd" clip-rule="evenodd" d="M5.34135 0.698682C5.66466 0.634373 5.99977 0.667379 6.30431 0.793525C6.60885 0.919671 6.86915 1.13329 7.05229 1.40737C7.23542 1.68146 7.33317 2.00369 7.33317 2.33332V3.33332C7.33317 3.70151 7.03469 3.99999 6.6665 3.99999H5.6665C5.33687 3.99999 5.01464 3.90224 4.74055 3.71911C4.46647 3.53597 4.25285 3.27567 4.12671 2.97113C4.00056 2.66659 3.96755 2.33148 4.03186 2.00817C4.09617 1.68487 4.25491 1.3879 4.48799 1.15481C4.72108 0.921725 5.01805 0.76299 5.34135 0.698682ZM5.79407 2.02536C5.73316 2.00013 5.66613 1.99353 5.60147 2.0064C5.53681 2.01926 5.47742 2.051 5.4308 2.09762C5.38418 2.14424 5.35244 2.20363 5.33958 2.26829C5.32671 2.33295 5.33332 2.39998 5.35854 2.46088C5.38377 2.52179 5.4265 2.57385 5.48131 2.61048C5.53613 2.64711 5.60058 2.66666 5.6665 2.66666H5.99984V2.33332C5.99984 2.2674 5.98029 2.20295 5.94366 2.14813C5.90703 2.09332 5.85497 2.05059 5.79407 2.02536ZM9.6665 1.99999C9.48241 1.99999 9.33317 2.14923 9.33317 2.33332V5.66666C9.33317 5.85075 9.48241 5.99999 9.6665 5.99999C9.8506 5.99999 9.99984 5.85075 9.99984 5.66666V2.33332C9.99984 2.14923 9.8506 1.99999 9.6665 1.99999ZM7.99984 2.33332C7.99984 1.41285 8.74603 0.666657 9.6665 0.666657C10.587 0.666657 11.3332 1.41285 11.3332 2.33332V5.66666C11.3332 6.58713 10.587 7.33332 9.6665 7.33332C8.74603 7.33332 7.99984 6.58713 7.99984 5.66666V2.33332ZM13.0287 4.12686C13.3332 4.00071 13.6684 3.96771 13.9917 4.03201C14.315 4.09632 14.6119 4.25506 14.845 4.48815C15.0781 4.72123 15.2368 5.0182 15.3011 5.34151C15.3655 5.66481 15.3324 5.99992 15.2063 6.30446C15.0802 6.60901 14.8665 6.8693 14.5925 7.05244C14.3184 7.23558 13.9961 7.33332 13.6665 7.33332H12.6665C12.2983 7.33332 11.9998 7.03485 11.9998 6.66666V5.66666C11.9998 5.33702 12.0976 5.01479 12.2807 4.74071C12.4639 4.46662 12.7242 4.253 13.0287 4.12686ZM13.7315 5.33973C13.6669 5.32687 13.5999 5.33347 13.5389 5.3587C13.478 5.38393 13.426 5.42665 13.3893 5.48147C13.3527 5.53628 13.3332 5.60073 13.3332 5.66666V5.99999H13.6665C13.7324 5.99999 13.7969 5.98044 13.8517 5.94381C13.9065 5.90719 13.9492 5.85513 13.9745 5.79422C13.9997 5.73331 14.0063 5.66629 13.9934 5.60163C13.9806 5.53697 13.9488 5.47757 13.9022 5.43095C13.8556 5.38434 13.7962 5.35259 13.7315 5.33973ZM2.33317 5.99999C2.14908 5.99999 1.99984 6.14923 1.99984 6.33332C1.99984 6.51742 2.14908 6.66666 2.33317 6.66666H5.6665C5.8506 6.66666 5.99984 6.51742 5.99984 6.33332C5.99984 6.14923 5.8506 5.99999 5.6665 5.99999H2.33317ZM0.666505 6.33332C0.666505 5.41285 1.4127 4.66666 2.33317 4.66666H5.6665C6.58698 4.66666 7.33317 5.41285 7.33317 6.33332C7.33317 7.2538 6.58698 7.99999 5.6665 7.99999H2.33317C1.4127 7.99999 0.666505 7.2538 0.666505 6.33332ZM10.3332 9.33332C10.1491 9.33332 9.99984 9.48256 9.99984 9.66666C9.99984 9.85075 10.1491 9.99999 10.3332 9.99999H13.6665C13.8506 9.99999 13.9998 9.85075 13.9998 9.66666C13.9998 9.48256 13.8506 9.33332 13.6665 9.33332H10.3332ZM8.6665 9.66666C8.6665 8.74618 9.4127 7.99999 10.3332 7.99999H13.6665C14.587 7.99999 15.3332 8.74618 15.3332 9.66666C15.3332 10.5871 14.587 11.3333 13.6665 11.3333H10.3332C9.4127 11.3333 8.6665 10.5871 8.6665 9.66666ZM1.40722 8.94754C1.6813 8.76441 2.00354 8.66666 2.33317 8.66666H3.33317C3.70136 8.66666 3.99984 8.96513 3.99984 9.33332V10.3333C3.99984 10.663 3.90209 10.9852 3.71895 11.2593C3.53582 11.5334 3.27552 11.747 2.97098 11.8731C2.66643 11.9993 2.33132 12.0323 2.00802 11.968C1.68472 11.9037 1.38775 11.7449 1.15466 11.5118C0.921573 11.2787 0.762838 10.9818 0.698529 10.6585C0.634221 10.3352 0.667226 10.0001 0.793372 9.69552C0.919518 9.39098 1.13314 9.13068 1.40722 8.94754ZM2.33317 9.99999C2.26724 9.99999 2.2028 10.0195 2.14798 10.0562C2.09317 10.0928 2.05044 10.1449 2.02521 10.2058C1.99998 10.2667 1.99338 10.3337 2.00624 10.3984C2.0191 10.463 2.05085 10.5224 2.09747 10.569C2.14409 10.6156 2.20348 10.6474 2.26814 10.6603C2.3328 10.6731 2.39982 10.6665 2.46073 10.6413C2.52164 10.6161 2.5737 10.5733 2.61033 10.5185C2.64695 10.4637 2.6665 10.3993 2.6665 10.3333V9.99999H2.33317ZM6.33317 9.99999C6.14908 9.99999 5.99984 10.1492 5.99984 10.3333V13.6667C5.99984 13.8508 6.14908 14 6.33317 14C6.51727 14 6.6665 13.8508 6.6665 13.6667V10.3333C6.6665 10.1492 6.51727 9.99999 6.33317 9.99999ZM4.6665 10.3333C4.6665 9.41285 5.4127 8.66666 6.33317 8.66666C7.25365 8.66666 7.99984 9.41285 7.99984 10.3333V13.6667C7.99984 14.5871 7.25365 15.3333 6.33317 15.3333C5.4127 15.3333 4.6665 14.5871 4.6665 13.6667V10.3333ZM8.6665 12.6667C8.6665 12.2985 8.96498 12 9.33317 12H10.3332C10.6628 12 10.985 12.0977 11.2591 12.2809C11.5332 12.464 11.7468 12.7243 11.873 13.0289C11.9991 13.3334 12.0321 13.6685 11.9678 13.9918C11.9035 14.3151 11.7448 14.6121 11.5117 14.8452C11.2786 15.0783 10.9816 15.237 10.6583 15.3013C10.335 15.3656 9.99991 15.3326 9.69537 15.2065C9.39082 15.0803 9.13052 14.8667 8.94739 14.5926C8.76425 14.3185 8.6665 13.9963 8.6665 13.6667V12.6667ZM9.99984 13.3333V13.6667C9.99984 13.7326 10.0194 13.797 10.056 13.8518C10.0926 13.9067 10.1447 13.9494 10.2056 13.9746C10.2665 13.9998 10.3335 14.0064 10.3982 13.9936C10.4629 13.9807 10.5223 13.949 10.5689 13.9024C10.6155 13.8557 10.6472 13.7963 10.6601 13.7317C10.673 13.667 10.6664 13.6 10.6411 13.5391C10.6159 13.4782 10.5732 13.4261 10.5184 13.3895C10.4635 13.3529 10.3991 13.3333 10.3332 13.3333H9.99984Z" fill="#E9EAEC"/>
</svg>
