<svg width="20" height="20" viewBox="0 0 20 20" fill="none" xmlns="http://www.w3.org/2000/svg">
<g clip-path="url(#clip0_3128_2003)">
<path fill-rule="evenodd" clip-rule="evenodd" d="M9.99998 2.50001C5.85784 2.50001 2.49998 5.85787 2.49998 10C2.49998 14.1421 5.85784 17.5 9.99998 17.5C14.1421 17.5 17.5 14.1421 17.5 10C17.5 5.85787 14.1421 2.50001 9.99998 2.50001ZM0.833313 10C0.833313 4.9374 4.93737 0.833344 9.99998 0.833344C15.0626 0.833344 19.1666 4.9374 19.1666 10C19.1666 15.0626 15.0626 19.1667 9.99998 19.1667C4.93737 19.1667 0.833313 15.0626 0.833313 10ZM9.99998 4.16668C10.4602 4.16668 10.8333 4.53977 10.8333 5.00001V9.48498L13.706 10.9213C14.1176 11.1271 14.2845 11.6277 14.0787 12.0394C13.8728 12.451 13.3723 12.6179 12.9606 12.412L9.6273 10.7454C9.34498 10.6042 9.16665 10.3157 9.16665 10V5.00001C9.16665 4.53977 9.53974 4.16668 9.99998 4.16668Z" fill="#2DEBFC"/>
</g>
<defs>
<clipPath id="clip0_3128_2003">
<rect width="20" height="20" fill="white"/>
</clipPath>
</defs>
</svg>
